<svg width="36" height="607" viewBox="0 0 36 607" fill="none" xmlns="http://www.w3.org/2000/svg">
  <path d="M14.1945 0.159912C14.1945 0.159912 20.5774 15.7675 21.0227 30.0922C21.4681 44.6309 21.0227 57.0314 18.7962 74.7769C15.8273 98.9367 3.80376 145.545 10.3351 170.347C16.8664 195.148 17.1632 196.217 21.3196 208.831C26.0696 222.942 35.5698 251.592 35.1244 287.083C34.6791 324.925 10.4835 393.556 11.671 421.778C11.8195 424.771 12.8585 435.89 14.6398 444.228C16.4211 452.352 20.2805 464.325 21.6165 480.575C22.2102 487.416 23.2493 498.32 22.9524 510.934C22.804 514.141 22.3587 524.404 20.5774 536.59C18.7962 548.777 15.9757 560.109 15.0851 570.371C13.4523 592.392 15.8273 606.29 15.8273 606.29H-0.204102L-0.204094 0.159912L14.1945 0.159912ZM16.5695 48.6931C15.0851 50.1897 15.9757 52.9691 15.9757 57.8865C15.9757 62.8041 14.1945 70.9285 14.3429 70.2871C14.4914 69.6457 16.5695 63.6592 17.1632 57.4589C17.9054 51.0449 18.0539 47.4103 16.5695 48.6931ZM12.5617 88.0327C12.5617 88.0327 12.2648 93.164 11.2257 100.006C10.0382 106.847 7.06943 122.027 6.03035 132.29C4.39752 149.822 6.03035 166.071 6.17879 164.574C6.32723 162.863 5.28815 144.049 7.81162 126.945C8.85069 119.89 11.0773 107.061 11.8195 100.433C12.7101 93.3778 12.5617 88.0327 12.5617 88.0327ZM12.4132 210.327C11.3742 206.693 19.3899 238.763 21.468 249.881C22.3587 254.371 23.8431 263.136 24.4368 271.262C25.0306 279.6 25.0306 290.29 25.179 290.076C25.4759 290.076 26.3665 277.676 25.179 266.13C23.9915 254.585 23.5462 255.012 22.804 249.881C21.6165 241.756 13.4523 213.962 12.4132 210.327ZM10.0382 180.609C10.0382 180.182 9.44445 182.319 11.671 190.872C13.8976 199.424 16.8664 205.197 17.1632 205.624C17.3117 206.052 14.4914 198.141 12.7101 191.513C10.9289 185.099 10.0382 180.823 10.0382 180.609ZM8.70226 1.22889C8.85069 1.44273 10.3351 5.29116 12.4132 11.4914C14.4914 17.6917 16.5695 26.2438 16.4211 25.8162C16.4211 25.3886 15.5304 18.3331 12.7101 9.99485C9.88977 1.65656 8.55382 1.01512 8.70226 1.22889ZM17.0148 539.37C16.7179 539.156 16.7179 543.432 15.2335 548.99C13.7492 554.55 12.8585 560.536 12.2648 565.667C11.0773 574.22 12.4132 590.682 12.5617 589.827C12.7101 589.186 12.1164 572.295 13.6007 563.102C14.3429 558.399 14.3429 557.97 15.9757 550.915C17.6086 543.86 17.4601 539.583 17.0148 539.37ZM13.4523 450.214C13.3039 449.359 11.0773 442.731 9.59289 432.255C7.96006 421.778 8.85069 413.226 8.40538 413.226C7.96006 413.226 7.06942 415.364 7.96005 426.482C8.85069 437.6 13.6007 451.069 13.4523 450.214ZM9.74133 453.208C9.88976 452.779 7.81161 445.938 7.21786 441.021C6.77255 436.103 6.47566 436.958 6.32722 436.958C6.17878 436.958 6.03035 439.31 6.6241 442.731C7.3663 446.366 9.59289 453.635 9.74133 453.208ZM6.32722 406.171C6.6241 405.957 7.51474 398.687 8.99913 394.198C10.4835 389.708 9.88976 390.349 9.74133 390.136C9.59289 389.922 8.55381 391.846 7.81161 395.267C6.92098 398.687 6.03035 406.384 6.32722 406.171ZM16.2726 466.463C16.7179 466.677 17.0148 465.821 15.9757 462.401C14.9367 458.98 14.046 456.842 14.1945 457.697C14.3429 458.553 14.7882 459.622 15.382 463.042C15.9757 466.677 15.8273 466.25 16.2726 466.463ZM18.2023 532.528C18.2023 532.955 19.3899 528.039 19.5384 525.473C19.6868 522.907 19.6868 521.196 19.2415 521.196C18.7962 521.196 18.4993 521.411 18.6477 524.617C18.7962 528.039 18.2023 532.101 18.2023 532.528ZM31.1166 280.883C31.2651 281.096 30.6712 286.014 30.6712 296.918C30.6712 307.608 27.1087 325.995 25.4759 333.692C23.8431 341.389 31.2651 312.312 31.5619 298.414C31.8588 284.517 30.9682 280.669 31.1166 280.883Z" fill="#E0F2FE"/>
</svg>
